<svg width="24" height="14" viewBox="-7.5 0 24 14" fill="none" xmlns="http://www.w3.org/2000/svg">
<g id="Frame" clip-path="url(#clip0_11_19)">
<path id="Vector" fill-rule="evenodd" clip-rule="evenodd" d="M5.21763 9.19035C5.24739 9.1854 5.27716 9.18018 5.30662 9.17502C5.445 9.15079 5.57638 9.12778 5.66643 9.13924C5.8605 9.16393 6.14833 9.5452 6.40153 10.0011C6.67661 10.4963 6.8794 10.9435 6.87034 11.2339C6.86129 11.5243 6.40153 11.9971 6.14808 11.9988C5.89463 12.0005 5.71976 11.9988 5.25328 11.9511C4.78679 11.9034 4.11694 11.4539 3.92506 11.15C3.88361 11.0843 3.84469 11.0222 3.80695 10.9589C3.66996 10.7292 3.54858 10.4843 3.37902 10.0011C3.25396 9.64464 3.15212 9.27989 3.07349 8.9099C3.01735 8.64574 2.97305 8.3789 2.94058 8.11052C2.89603 7.74223 2.87376 7.37103 2.87377 6.99983C2.87378 6.62863 2.89608 6.25743 2.94065 5.88914C2.97182 5.63166 3.01387 5.37559 3.06681 5.12194C3.14634 4.74093 3.25043 4.36536 3.3791 3.99859C3.54305 3.53124 3.66193 3.27887 3.79346 3.05774C3.83542 2.9872 3.87866 2.91984 3.92506 2.8497C4.11694 2.55965 4.75943 2.09621 5.25328 2.04852C5.69469 2.0059 5.8825 2.00383 6.07774 2.00168C6.10094 2.00142 6.12424 2.00116 6.14808 2.00084C6.37262 1.99777 6.86767 2.46384 6.87034 2.76576C6.87301 3.06768 6.67661 3.50335 6.40153 3.99859C6.14833 4.45445 5.90631 4.83208 5.66643 4.86041C5.5452 4.87473 5.37538 4.84587 5.21762 4.81906L5.21472 4.81857C5.06146 4.79252 4.91994 4.76868 4.84592 4.78862C4.69531 4.82918 4.42186 4.93563 4.36796 5.30943C4.36539 5.32726 4.36292 5.34436 4.36055 5.36079C4.31323 5.68869 4.30467 5.74799 4.28402 5.99941C4.25652 6.33416 4.24277 6.66702 4.24277 6.99987C4.24277 7.3327 4.25652 7.66553 4.28402 8.00024L4.28529 8.0158C4.30606 8.26866 4.31513 8.37914 4.36796 8.69023C4.42186 9.00762 4.61764 9.17549 4.85205 9.2127C4.95451 9.22896 5.08593 9.21225 5.21763 9.19035ZM6.24676 6.77929C7.022 6.56283 7.4712 5.993 7.59983 5.82983L7.60108 5.82825C7.8318 5.53558 8.02226 5.20246 8.15147 4.96984C8.30595 4.69172 8.47044 4.374 8.59945 4.05043C8.71528 3.75989 8.87662 3.28778 8.87184 2.74807C8.86678 2.17599 8.64864 1.73588 8.51643 1.50955C8.36482 1.24999 8.18407 1.03239 8.01589 0.862322C7.84785 0.692392 7.64129 0.518305 7.40399 0.372388C7.24091 0.272112 6.76274 -0.00858388 6.12068 0.000201648C6.0982 0.000509335 6.07567 0.000767052 6.05283 0.00102835C5.83357 0.00353635 5.58472 0.00638317 5.06083 0.056969C4.35883 0.124753 3.75978 0.440169 3.39464 0.674477C3.03745 0.903692 2.56933 1.27167 2.2555 1.74608C1.96663 2.18276 1.75742 2.57501 1.49029 3.33648C1.07639 4.51633 0.872235 5.76124 0.872192 6.99976C0.87215 8.23838 1.07625 9.48338 1.49025 10.6633C1.76539 11.4474 1.97594 11.8115 2.23229 12.2177C2.56528 12.7452 3.0787 13.1264 3.42391 13.3424C3.78574 13.5689 4.37562 13.8727 5.04966 13.9416C5.59209 13.997 5.83951 14.0017 6.16143 13.9996C6.77097 13.9955 7.22689 13.7409 7.42463 13.6179C7.67256 13.4635 7.88228 13.2804 8.04868 13.1062C8.21611 12.9308 8.3877 12.7142 8.53036 12.4628C8.65453 12.2439 8.85431 11.8299 8.87095 11.2962C8.88868 10.7279 8.71234 10.23 8.60116 9.95186C8.47157 9.62767 8.30579 9.30764 8.15147 9.02981C7.99194 8.74261 7.79022 8.42008 7.5576 8.1374C7.44288 7.99798 7.28103 7.81945 7.07419 7.65484C6.93606 7.54492 6.65213 7.33821 6.24679 7.22192C6.24354 7.07433 6.24353 6.92688 6.24676 6.77929Z" fill="#5F58AC"/>
</g>
<defs>
<clipPath id="clip0_11_19">
<rect width="8" height="14" fill="white" transform="translate(0.872192)"/>
</clipPath>
</defs>
</svg>
