<svg width="24" height="24" viewBox="-2 -2 24 24" fill="none" xmlns="http://www.w3.org/2000/svg">
<g id="Frame" clip-path="url(#clip0_11_40)">
<path id="Vector" fill-rule="evenodd" clip-rule="evenodd" d="M9.00855 0.502441C4.59027 0.502441 1.00854 4.08416 1.00854 8.50244C1.00854 12.9207 4.59027 16.5024 9.00855 16.5024C10.8573 16.5024 12.5595 15.8754 13.9142 14.8223L17.3014 18.2095C17.692 18.6001 18.3251 18.6001 18.7157 18.2095C19.1062 17.819 19.1062 17.1859 18.7157 16.7953L15.3284 13.4081C16.3815 12.0534 17.0085 10.3512 17.0085 8.50244C17.0085 4.08416 13.4268 0.502441 9.00855 0.502441ZM3.00855 8.50244C3.00855 5.18873 5.69484 2.50244 9.00855 2.50244C12.3223 2.50244 15.0085 5.18873 15.0085 8.50244C15.0085 11.8161 12.3223 14.5024 9.00855 14.5024C5.69484 14.5024 3.00855 11.8161 3.00855 8.50244Z" fill="#888888"/>
</g>
<defs>
<clipPath id="clip0_11_40">
<rect width="19" height="19" fill="white" transform="translate(0.010498 0.5)"/>
</clipPath>
</defs>
</svg>
