<svg width="28" height="28" viewBox="0 0 28 28" fill="none" xmlns="http://www.w3.org/2000/svg">
<rect width="27.9982" height="28" transform="translate(0.00830078)" fill="#7659EB"/>
<path d="M19.4282 8.36289C19.0621 8.04299 17.5802 7.02313 14.2763 7.00946C14.2763 7.00946 10.3813 6.78799 8.48423 8.43945C7.42904 9.44017 7.05712 10.9084 7.01676 12.7267C6.9764 14.5449 6.92739 17.9517 10.3899 18.8759H10.3928L10.3899 20.2868C10.3899 20.2868 10.3669 20.8582 10.7647 20.973C11.2433 21.1152 11.5258 20.6805 11.9842 20.2129C12.2351 19.9559 12.581 19.5786 12.8434 19.2915C15.2132 19.4802 17.0324 19.0482 17.24 18.9853C17.7186 18.8376 20.4258 18.5095 20.864 15.1027C21.3195 11.5865 20.6449 9.36635 19.4282 8.36289ZM19.829 14.8457C19.4571 17.6893 17.2631 17.8697 16.8595 17.9928C16.6865 18.0447 15.0864 18.422 13.0769 18.299C13.0769 18.299 11.5777 20.0133 11.1107 20.459C10.9579 20.6039 10.7907 20.5903 10.7935 20.3032C10.7935 20.1145 10.8051 17.9599 10.8051 17.9599C10.8022 17.9599 10.8022 17.9599 10.8051 17.9599C7.87014 17.1889 8.04312 14.2879 8.07484 12.7704C8.10655 11.2529 8.40927 10.0089 9.30301 9.17222C10.9089 7.79145 14.2157 7.99651 14.2157 7.99651C17.0094 8.00745 18.3471 8.80583 18.6585 9.07379C19.6877 9.91045 20.2124 11.9119 19.829 14.8457ZM15.8216 12.6365C15.8331 12.8716 15.4612 12.888 15.4496 12.6529C15.4179 12.0513 15.121 11.7588 14.5098 11.726C14.2618 11.7123 14.2849 11.3596 14.53 11.3733C15.3343 11.4143 15.7812 11.8517 15.8216 12.6365ZM16.4068 12.9454C16.4356 11.7861 15.6716 10.8784 14.2215 10.7772C13.9764 10.7608 14.0024 10.4081 14.2474 10.4245C15.9196 10.5393 16.8104 11.6303 16.7787 12.9536C16.7758 13.1888 16.4011 13.1778 16.4068 12.9454ZM17.7618 13.3118C17.7647 13.5469 17.3899 13.5497 17.3899 13.3145C17.3726 11.0862 15.8071 9.87217 13.9072 9.8585C13.6622 9.85577 13.6622 9.50579 13.9072 9.50579C16.032 9.51946 17.7417 10.9112 17.7618 13.3118ZM17.4361 15.9941V15.9995C17.1247 16.519 16.5423 17.0932 15.9426 16.91L15.9369 16.9018C15.3286 16.7405 13.8957 16.0405 12.9904 15.357C12.5234 15.007 12.0967 14.5941 11.768 14.1977C11.4711 13.845 11.1712 13.4266 10.88 12.9235C10.2659 11.8709 10.1304 11.4006 10.1304 11.4006C9.93728 10.8319 10.5398 10.2796 11.0905 9.98428H11.0963C11.3615 9.85303 11.6152 9.89678 11.7853 10.0909C11.7853 10.0909 12.1428 10.4956 12.2956 10.6952C12.4398 10.8811 12.6329 11.1791 12.7338 11.3459C12.9097 11.6439 12.8001 11.9474 12.6272 12.0732L12.2812 12.3357C12.1053 12.4697 12.1284 12.7185 12.1284 12.7185C12.1284 12.7185 12.6416 14.5586 14.5588 15.0234C14.5588 15.0234 14.8211 15.0453 14.9624 14.8785L15.2392 14.5504C15.3718 14.3863 15.6918 14.2824 16.0061 14.4492C16.4299 14.6762 16.969 15.0289 17.3265 15.3488C17.5283 15.5046 17.5744 15.7425 17.4361 15.9941Z" fill="white"/>
</svg>
