<svg width="28" height="28" viewBox="0 0 28 28" fill="none" xmlns="http://www.w3.org/2000/svg">
<rect width="27.9982" height="27.9982" transform="translate(0.00170898)" fill="#5181B8"/>
<path fill-rule="evenodd" clip-rule="evenodd" d="M20.6791 10.4051C20.7765 10.0806 20.6791 9.84216 20.216 9.84216H18.6845C18.295 9.84216 18.1156 10.0482 18.0183 10.2754C18.0183 10.2754 17.2394 12.1737 16.136 13.4068C15.7791 13.7637 15.6168 13.8771 15.4221 13.8771C15.3248 13.8771 15.1839 13.7637 15.1839 13.4392V10.4051C15.1839 10.0157 15.0709 9.84216 14.7463 9.84216H12.3396C12.0963 9.84216 11.95 10.0229 11.95 10.1942C11.95 10.5634 12.5015 10.6485 12.5584 11.6869V13.9422C12.5584 14.4367 12.4692 14.5264 12.2744 14.5264C11.7553 14.5264 10.4924 12.6194 9.74328 10.4376C9.59648 10.0135 9.44923 9.84216 9.05782 9.84216H7.52631C7.08874 9.84216 7.00122 10.0482 7.00122 10.2754C7.00122 10.681 7.52051 12.693 9.41882 15.3539C10.6845 17.1709 12.4674 18.1561 14.0899 18.1561C15.0635 18.1561 15.1839 17.9373 15.1839 17.5604V16.187C15.1839 15.7494 15.2761 15.6621 15.5842 15.6621C15.8116 15.6621 16.2009 15.7757 17.1096 16.6518C18.148 17.6901 18.3191 18.1561 18.9033 18.1561H20.4348C20.8723 18.1561 21.0911 17.9373 20.9649 17.5055C20.8268 17.0752 20.3311 16.451 19.6732 15.7108C19.3162 15.2889 18.7807 14.8346 18.6186 14.6075C18.3914 14.3154 18.4563 14.1856 18.6186 13.9262C18.6186 13.9262 20.4844 11.2976 20.6791 10.4052V10.4051Z" fill="white"/>
</svg>
