<svg width="28" height="28" viewBox="0 0 28 28" fill="none" xmlns="http://www.w3.org/2000/svg">
<rect width="27.9982" height="27.9982" transform="translate(0.010498)" fill="#04BB00"/>
<path d="M18.9124 9.0338C17.6032 7.72139 15.8595 6.99956 14.0065 6.99956C10.1817 6.99956 7.06944 10.1119 7.06944 13.9366C7.06944 15.1584 7.38817 16.3521 7.99438 17.4052L7.01007 20.9987L10.688 20.0331C11.7004 20.5862 12.841 20.8768 14.0034 20.8768H14.0065C17.8281 20.8768 21.0092 17.7645 21.0092 13.9397C21.0092 12.0867 20.2217 10.3462 18.9124 9.0338ZM14.0065 19.7081C12.9691 19.7081 11.9535 19.43 11.0692 18.9051L10.8598 18.7801L8.67872 19.3519L9.25993 17.2239L9.12244 17.0052C8.54435 16.0865 8.24124 15.0272 8.24124 13.9366C8.24124 10.7587 10.8286 8.17136 14.0096 8.17136C15.5502 8.17136 16.9969 8.77132 18.0844 9.86188C19.1718 10.9524 19.8405 12.3992 19.8374 13.9397C19.8374 17.1208 17.1844 19.7081 14.0065 19.7081ZM17.1688 15.3897C16.9969 15.3022 16.1439 14.8834 15.9845 14.8272C15.8251 14.7678 15.7095 14.7397 15.5939 14.9147C15.4783 15.0897 15.1471 15.4771 15.0439 15.5959C14.9439 15.7115 14.8408 15.7271 14.669 15.6396C13.6503 15.1303 12.9816 14.7303 12.3097 13.5773C12.1316 13.271 12.4879 13.2929 12.8191 12.6305C12.8753 12.5148 12.8472 12.4148 12.8035 12.3273C12.7597 12.2399 12.4129 11.3868 12.2691 11.0399C12.1285 10.7025 11.9848 10.7493 11.8785 10.7431C11.7785 10.7368 11.6629 10.7368 11.5473 10.7368C11.4317 10.7368 11.2442 10.7806 11.0848 10.9524C10.9254 11.1274 10.4786 11.5461 10.4786 12.3992C10.4786 13.2523 11.1004 14.0772 11.1848 14.1929C11.2723 14.3085 12.4066 16.0584 14.1471 16.8114C15.2471 17.2864 15.6783 17.327 16.2282 17.2458C16.5626 17.1958 17.2532 16.8271 17.3969 16.4208C17.5407 16.0146 17.5407 15.6678 17.4969 15.5959C17.4563 15.5178 17.3407 15.474 17.1688 15.3897Z" fill="white"/>
</svg>
