<svg width="28" height="28" viewBox="0 0 28 28" fill="none" xmlns="http://www.w3.org/2000/svg">
<rect width="27.9982" height="27.9982" transform="translate(0.00390625)" fill="#EE8208"/>
<path d="M14.003 10.3375C14.6217 10.3375 15.1249 10.8408 15.1249 11.4595C15.1249 12.0776 14.6215 12.5809 14.003 12.5809C13.3847 12.5809 12.8813 12.0776 12.8813 11.4595C12.8812 10.8407 13.3848 10.3375 14.003 10.3375ZM14.003 14.1682C15.4974 14.1682 16.7127 12.9533 16.7127 11.4595C16.7127 9.96491 15.4976 8.74947 14.003 8.74947C12.5087 8.74947 11.2932 9.96504 11.2932 11.4595C11.2932 12.9533 12.5087 14.1682 14.003 14.1682ZM15.0992 16.3784C15.6567 16.2515 16.1886 16.0312 16.6727 15.7269C16.8508 15.6148 16.9772 15.4365 17.0239 15.2313C17.0707 15.026 17.0339 14.8106 16.9218 14.6324C16.8664 14.5441 16.7941 14.4675 16.709 14.4072C16.624 14.3469 16.5279 14.3039 16.4262 14.2807C16.3245 14.2575 16.2193 14.2546 16.1165 14.2721C16.0137 14.2897 15.9154 14.3273 15.8271 14.3828C14.717 15.0808 13.2882 15.0803 12.179 14.3828C12.0908 14.3273 11.9924 14.2896 11.8896 14.2721C11.7869 14.2546 11.6816 14.2575 11.58 14.2806C11.4783 14.3038 11.3822 14.3468 11.2972 14.4072C11.2121 14.4675 11.1398 14.5441 11.0844 14.6324C10.9723 14.8105 10.9355 15.0259 10.9821 15.2312C11.0288 15.4364 11.1551 15.6148 11.3332 15.7269C11.8172 16.0311 12.349 16.2514 12.9064 16.3784L11.3916 17.8935C11.2427 18.0424 11.1591 18.2444 11.1591 18.4549C11.1592 18.6655 11.2428 18.8674 11.3918 19.0163C11.5407 19.1651 11.7426 19.2487 11.9532 19.2487C12.1637 19.2487 12.3657 19.165 12.5145 19.0161L14.0027 17.5276L15.4918 19.0162C15.5655 19.0899 15.6529 19.1484 15.7492 19.1884C15.8454 19.2283 15.9486 19.2488 16.0528 19.2488C16.157 19.2488 16.2602 19.2283 16.3564 19.1884C16.4527 19.1484 16.5401 19.0899 16.6138 19.0162C16.6876 18.9426 16.7462 18.8551 16.7862 18.7588C16.8262 18.6625 16.8467 18.5593 16.8467 18.455C16.8467 18.3507 16.8262 18.2475 16.7862 18.1512C16.7462 18.0549 16.6876 17.9674 16.6138 17.8938L15.0992 16.3784Z" fill="white"/>
</svg>
