<svg width="28" height="28" viewBox="0 0 28 28" fill="none" xmlns="http://www.w3.org/2000/svg">
<rect width="27.9982" height="27.9982" transform="translate(0.00610352)" fill="#419FD9"/>
<path d="M19.5867 9.03C19.451 8.91607 19.2869 8.84121 19.112 8.81346C18.937 8.78572 18.7578 8.80613 18.5936 8.87251L8.57111 12.8841C8.42501 12.9448 8.30016 13.0474 8.21234 13.179C8.12451 13.3106 8.07764 13.4653 8.07764 13.6235C8.07764 13.7817 8.12451 13.9363 8.21234 14.0679C8.30016 14.1995 8.42501 14.3021 8.57111 14.3628L9.21857 14.6296C9.32532 14.6748 9.44563 14.6758 9.55308 14.6323C9.66053 14.5888 9.74634 14.5045 9.79166 14.3978C9.81389 14.3447 9.82541 14.2877 9.82557 14.2301C9.82572 14.1725 9.8145 14.1154 9.79255 14.0622C9.7706 14.0089 9.73836 13.9606 9.69766 13.9198C9.65697 13.879 9.60863 13.8467 9.55542 13.8247L9.0742 13.6278L18.9217 9.69058C18.9368 9.6813 18.9543 9.67639 18.972 9.67639C18.9898 9.67639 19.0072 9.6813 19.0223 9.69058C19.0366 9.70271 19.0474 9.71843 19.0535 9.73612C19.0597 9.75382 19.061 9.77283 19.0573 9.7912L17.2593 18.1819C17.2534 18.2118 17.2398 18.2396 17.2199 18.2627C17.1999 18.2857 17.1743 18.3031 17.1456 18.3132C17.1174 18.3244 17.0867 18.3278 17.0567 18.3232C17.0267 18.3186 16.9985 18.3061 16.975 18.2869L13.4752 15.5571L16.9006 12.0967C16.9738 12.0208 17.0171 11.921 17.0225 11.8157C17.0279 11.7104 16.9952 11.6066 16.9302 11.5236C16.8653 11.4405 16.7725 11.3837 16.669 11.3636C16.5655 11.3435 16.4582 11.3615 16.3669 11.4142L11.3447 14.389C11.2889 14.4142 11.239 14.4509 11.1983 14.4966C11.1576 14.5423 11.1269 14.596 11.1082 14.6543C11.0895 14.7126 11.0833 14.7742 11.0899 14.835C11.0966 14.8959 11.1159 14.9547 11.1467 15.0076C11.1774 15.0605 11.2189 15.1064 11.2686 15.1422C11.3182 15.1781 11.3747 15.2031 11.4346 15.2158C11.4945 15.2284 11.5564 15.2283 11.6163 15.2155C11.6761 15.2027 11.7327 15.1775 11.7822 15.1415L13.8951 13.8947L12.8671 14.9403C12.773 15.0286 12.6997 15.1367 12.6523 15.2567C12.605 15.3768 12.5847 15.5058 12.5931 15.6346C12.6015 15.7634 12.6382 15.8887 12.7007 16.0016C12.7632 16.1145 12.8499 16.2122 12.9546 16.2877L16.4544 18.9781C16.6386 19.1203 16.8648 19.1972 17.0974 19.1969C17.2213 19.196 17.3442 19.1738 17.4605 19.1312C17.6277 19.0712 17.7766 18.9693 17.893 18.8353C18.0094 18.7012 18.0895 18.5395 18.1255 18.3657L19.9104 9.98369C19.9483 9.81031 19.9382 9.62989 19.8811 9.46184C19.8241 9.29379 19.7223 9.14449 19.5867 9.03Z" fill="white"/>
</svg>
